HIERARCHY
ROOT Hips
{
	OFFSET -3.958830 18.904000 13.208200
	CHANNELS 6 Xposition Yposition Zposition Zrotation Yrotation Xrotation 
	JOINT LHipJoint
	{
		OFFSET 0.000000 0.000000 0.000000
		CHANNELS 3 Zrotation Yrotation Xrotation
		JOINT LeftUpLeg
		{
			OFFSET 1.800000 -1.400000 0.085000
			CHANNELS 3 Zrotation Yrotation Xrotation
			JOINT LeftLeg
			{
				OFFSET 2.215000 -6.000000 0.000000
				CHANNELS 3 Zrotation Yrotation Xrotation
				JOINT LeftFoot
				{
					OFFSET 2.500000 -6.900000 0.000000
					CHANNELS 3 Zrotation Yrotation Xrotation
					JOINT LeftToeBase
					{
						OFFSET 0.200000 -0.500000 1.950000
						CHANNELS 3 Zrotation Yrotation Xrotation
						End Site
						{
							OFFSET 0.000000 0.000000 0.000000
						}
					}
				}
			}
		}
	}
	JOINT RHipJoint
	{
		OFFSET 0.000000 0.000000 0.000000
		CHANNELS 3 Zrotation Yrotation Xrotation
		JOINT RightUpLeg
		{
			OFFSET -1.800000 -1.400000 0.085000
			CHANNELS 3 Zrotation Yrotation Xrotation
			JOINT RightLeg
			{
				OFFSET -2.215000 -6.000000 0.000000
				CHANNELS 3 Zrotation Yrotation Xrotation
				JOINT RightFoot
				{
					OFFSET -2.500000 -6.900000 0.000000
					CHANNELS 3 Zrotation Yrotation Xrotation
					JOINT RightToeBase
					{
						OFFSET -0.200000 -0.500000 1.950000
						CHANNELS 3 Zrotation Yrotation Xrotation
						End Site
						{
							OFFSET 0.000000 0.000000 0.000000
						}
					}
				}
			}
		}
	}
	JOINT LowerBack
	{
		OFFSET 0.000000 0.000000 0.000000
		CHANNELS 3 Zrotation Yrotation Xrotation
		JOINT Spine
		{
			OFFSET -0.087000 1.940000 -0.288900
			CHANNELS 3 Zrotation Yrotation Xrotation
			JOINT Spine1
			{
				OFFSET 0.000000 1.950000 0.060000
				CHANNELS 3 Zrotation Yrotation Xrotation
				JOINT Neck
				{
					OFFSET 0.000000 0.000000 0.000000
					CHANNELS 3 Zrotation Yrotation Xrotation
					JOINT Neck1
					{
						OFFSET 0.000000 1.600000 0.340000
						CHANNELS 3 Zrotation Yrotation Xrotation
						JOINT Head
						{
							OFFSET 0.000000 1.667000 -0.240000
							CHANNELS 3 Zrotation Yrotation Xrotation
							End Site
							{
								OFFSET 0.000000 0.000000 0.000000
							}
						}
					}
				}
				JOINT LeftShoulder
				{
					OFFSET 0.000000 0.000000 0.000000
					CHANNELS 3 Zrotation Yrotation Xrotation
					JOINT LeftArm
					{
						OFFSET 2.700000 1.550000 -0.730000
						CHANNELS 3 Zrotation Yrotation Xrotation
						JOINT LeftForeArm
						{
							OFFSET 5.450000 0.000000 0.000000
							CHANNELS 3 Zrotation Yrotation Xrotation
							JOINT LeftHand
							{
								OFFSET 3.450000 0.000000 0.000000
								CHANNELS 3 Zrotation Yrotation Xrotation
								JOINT LeftHandIndex1
								{
									OFFSET 0.750000 0.000000 0.000000
									CHANNELS 3 Zrotation Yrotation Xrotation
									End Site
									{
										OFFSET 0.000000 0.000000 0.000000
									}
								}
							}
						}
					}
				}
				JOINT RightShoulder
				{
					OFFSET 0.000000 0.000000 0.000000
					CHANNELS 3 Zrotation Yrotation Xrotation
					JOINT RightArm
					{
						OFFSET -2.700000 1.550000 -0.730000
						CHANNELS 3 Zrotation Yrotation Xrotation
						JOINT RightForeArm
						{
							OFFSET -5.450000 0.000000 0.000000
							CHANNELS 3 Zrotation Yrotation Xrotation
							JOINT RightHand
							{
								OFFSET -3.450000 0.000000 0.000000
								CHANNELS 3 Zrotation Yrotation Xrotation
								JOINT RightHandIndex1
								{
									OFFSET -0.750000 0.000000 0.000000
									CHANNELS 3 Zrotation Yrotation Xrotation
									End Site
									{
										OFFSET 0.000000 0.000000 0.000000
									}
								}
							}
						}
					}
				}
			}
		}
	}
}
MOTION
Frames: 13
Frame Time: 0.016667
-0.025620 17.204480 -2.420610 1.730409 -16.973852 2.275389 -15.370083 14.311110 3.609715 1.618712 -3.684686 -18.316673 -12.102375 10.850387 28.427504 0.950418 5.814536 2.602072 -0.122360 -0.570220 0.055490 17.957550 -8.910549 4.133006 0.764245 7.520451 -36.961333 11.508777 -5.715668 20.353657 0.079140 -2.098340 3.833943 -0.705720 -0.025140 0.004300 -2.523786 -5.920959 -8.580421 7.093765 -6.804427 19.705542 -0.424984 -4.204916 -30.784711 7.094522 -10.657549 -11.312781 -28.162021 17.106354 32.908764 7.353710 7.322860 14.888700 -9.997187 29.887359 -0.372859 -60.687802 23.281021 -14.689534 22.200855 -68.520304 -12.201964 -2.880655 3.010569 0.464340 -0.250750 0.051500 0.068300 1.616547 -22.287517 5.209114 69.935200 -22.207658 -16.761759 17.246091 56.330558 12.170683 2.480459 -1.455421 0.038580 -0.273810 -0.127920 -0.049730 
-0.026890 17.229350 -2.388920 1.133185 -17.630140 2.639509 -15.390691 14.421820 3.585426 1.698724 -3.479287 -18.235566 -11.361044 10.479264 27.929026 0.921176 5.602497 2.659030 -0.085940 -0.544430 0.105760 17.913502 -8.912209 4.158717 0.885773 7.589960 -36.148075 12.474273 -5.705647 19.245407 0.048976 -2.030105 3.854868 -0.708900 -0.081950 0.011370 -2.404236 -6.064835 -8.654799 7.163566 -6.356415 19.290641 0.346877 -3.241997 -31.002558 7.381883 -10.235131 -11.809461 -27.856716 17.214354 35.322387 6.738990 7.927180 14.942570 -9.396084 30.229510 -0.027339 -61.090473 24.865591 -15.132565 19.493619 -68.584286 -10.553269 -2.830031 3.053825 0.501000 -0.286010 0.098060 0.071110 0.583253 -22.317264 5.566444 70.350256 -22.229211 -17.083889 15.643603 56.688128 11.687697 2.482060 -1.462441 0.057740 -0.296050 -0.161450 -0.066350 
-0.052480 17.262970 -2.314030 0.166460 -18.450524 3.263404 -15.410889 14.601512 3.509276 1.455187 -3.092086 -17.942007 -9.036510 9.507166 27.257186 0.819652 5.177383 2.771848 -0.085530 -0.571030 0.156110 17.846685 -9.020417 4.187493 1.272151 7.563026 -34.533803 13.336813 -5.571549 17.651224 0.046637 -1.940102 3.881053 -0.735010 -0.140390 0.026010 -2.225411 -6.111023 -8.761908 6.653989 -5.278181 17.942045 2.324491 -1.474283 -30.665700 7.208939 -9.343887 -12.574937 -26.045147 16.587927 38.789032 5.640870 8.636680 15.799030 -7.029629 31.192020 0.838946 -61.128367 27.514444 -15.097226 8.850908 -67.929445 -3.940366 -2.837556 3.203714 0.537080 -0.303880 0.127510 0.034950 -1.429710 -22.965373 5.857974 70.694249 -22.338576 -17.568057 13.324368 57.008480 10.911167 2.477298 -1.462125 0.066430 -0.337230 -0.161060 -0.104040 
-0.085290 17.276490 -2.226880 -0.705154 -18.309348 3.925762 -15.424689 14.686250 3.445478 1.298436 -2.889050 -17.904231 -6.708381 8.612095 27.000212 0.745650 4.861091 2.888945 -0.133310 -0.628450 0.158800 17.789365 -9.223904 4.154577 1.366113 7.111262 -32.556156 14.040561 -5.346716 15.485350 0.082665 -1.878017 3.929927 -0.761680 -0.125060 0.022180 -2.087556 -5.889069 -8.839363 5.544730 -4.474991 15.842712 5.116549 -0.119874 -29.073600 6.302809 -8.233040 -12.916161 -22.499175 14.768019 40.599471 3.971690 9.338170 18.026860 -4.147048 31.854697 2.079157 -61.469312 30.140951 -15.401012 -2.871940 -67.272884 3.056171 -2.881800 3.323110 0.517340 -0.261260 0.106250 0.016800 -2.950040 -23.898972 5.586009 70.645292 -21.844666 -18.271767 9.633520 57.413530 9.281787 2.466240 -1.466511 0.044690 -0.339810 -0.148460 -0.121280 
-0.118390 17.312420 -2.141600 -1.533562 -19.150184 4.412375 -15.448365 14.806562 3.360268 1.278003 -2.501517 -17.143499 -4.481461 7.539012 25.547070 0.638684 4.402919 3.028370 -0.096650 -0.617260 0.237180 17.722448 -9.435930 4.109329 2.137424 6.548976 -29.973478 13.787506 -4.817956 12.859925 0.087137 -1.713174 3.983170 -0.753550 -0.187190 0.037540 -1.890186 -5.712640 -8.904988 4.647849 -3.553049 13.675255 7.718821 1.253709 -27.773130 5.792082 -7.136555 -13.165489 -20.224477 13.735767 43.710326 1.832950 10.757920 18.951840 -2.604996 32.179893 2.881419 -60.216295 33.025464 -15.406326 -11.743971 -66.173637 8.161367 -2.874064 3.433687 0.542180 -0.271000 0.134330 -0.001630 -3.665604 -24.648575 5.439381 70.090015 -21.510625 -18.909688 5.442129 58.471314 7.492079 2.456594 -1.508021 0.051710 -0.378500 -0.174550 -0.162160 
-0.141060 17.348000 -2.064310 -2.833572 -20.026791 5.144218 -15.467142 14.857384 3.271397 1.570899 -2.242667 -16.713170 -2.597315 6.784252 24.868887 0.572090 4.152964 3.096331 -0.102960 -0.650080 0.272710 17.684346 -9.586790 4.109972 3.684699 6.136710 -27.639072 13.222389 -4.276929 10.221481 0.102397 -1.575203 4.030745 -0.771580 -0.215860 0.067320 -1.751599 -5.490381 -8.965561 4.468541 -2.727284 11.955724 9.992635 2.634939 -26.579251 5.224309 -5.949349 -13.521155 -17.359923 12.558053 45.962751 0.566340 11.558160 19.908890 -0.559541 32.577626 3.753686 -59.383192 35.833935 -15.366713 -19.539724 -65.715904 12.799855 -2.877919 3.550882 0.553300 -0.259730 0.143270 -0.030410 -4.853633 -25.560392 5.299052 69.546672 -21.134715 -19.366819 2.011929 59.452000 6.052081 2.446329 -1.541786 0.056870 -0.420540 -0.166200 -0.191820 
-0.146090 17.379020 -1.998530 -3.787091 -19.335472 5.650292 -15.462065 14.852786 3.223175 1.452701 -2.178517 -16.521501 -0.858359 6.093682 24.525860 0.518983 3.964784 3.163281 -0.145490 -0.709130 0.288240 17.671602 -9.766168 4.086727 4.540513 5.533566 -25.634872 12.504556 -3.935365 8.332862 0.127354 -1.531619 4.059257 -0.796280 -0.218500 0.066160 -1.730874 -5.176488 -8.988614 4.442186 -2.272672 10.780733 11.332194 3.401617 -25.729643 4.594448 -4.562509 -13.853641 -13.993557 10.757903 47.233835 -0.930790 12.160300 20.818050 1.217218 32.194519 4.615592 -56.858110 38.228679 -14.306778 -30.203710 -65.623155 19.222037 -2.909868 3.666197 0.544750 -0.233590 0.126630 -0.065570 -5.774829 -26.165189 5.266325 69.767859 -21.338610 -20.441062 -2.761679 60.575076 3.883652 2.420932 -1.527183 0.037410 -0.429390 -0.145610 -0.217770 
-0.144290 17.407250 -1.943070 -4.936360 -20.283370 6.106598 -15.433957 14.901220 3.175686 1.787821 -1.986270 -16.175306 -0.146532 5.827256 24.065502 0.483916 3.871014 3.203738 -0.146350 -0.710570 0.308450 17.696518 -9.769447 4.146124 6.049119 5.386387 -24.321438 11.995051 -3.547910 6.464294 0.123521 -1.436717 4.100886 -0.788750 -0.227080 0.041540 -1.780754 -5.180679 -9.053940 5.954038 -1.791635 10.400613 11.571620 4.305523 -25.546397 4.069906 -4.286246 -14.419383 -13.568276 10.795885 48.567343 -0.558160 12.138200 20.623900 2.632885 32.069241 5.283747 -54.388261 40.079878 -13.189085 -35.305414 -66.371447 22.748738 -2.890873 3.741226 0.569510 -0.245880 0.134120 -0.072180 -6.333474 -26.012242 5.306832 70.035118 -20.984886 -20.898421 -7.498180 61.320176 1.745122 2.402661 -1.476114 0.011840 -0.404250 -0.151570 -0.233590 
-0.145310 17.435190 -1.904820 -5.860509 -20.674896 6.750625 -15.431494 14.917271 3.148737 1.772035 -1.943871 -16.419875 0.981369 5.409772 23.942268 0.470955 3.743194 3.245835 -0.152870 -0.711550 0.308080 17.699405 -9.789266 4.193130 7.412956 5.269328 -23.576643 11.133836 -3.291610 5.490093 0.129226 -1.367549 4.142276 -0.796320 -0.235640 0.040850 -1.771266 -5.121763 -9.110002 6.609245 -1.096370 10.171397 12.240562 5.324857 -25.655684 3.712018 -3.888651 -14.885658 -12.726364 10.139274 49.280884 -0.996630 12.100100 20.418200 4.207130 32.030240 5.655179 -52.823713 40.688585 -12.320471 -36.324853 -66.030160 23.593593 -2.884208 3.795300 0.569130 -0.244530 0.141600 -0.073820 -7.279026 -25.995626 5.463987 70.003223 -21.003199 -21.193022 -12.392747 61.659523 -0.302353 2.386744 -1.437466 0.016310 -0.405540 -0.154350 -0.234160 
-0.143050 17.452320 -1.882770 -6.034226 -20.767076 7.258321 -15.433352 14.900181 3.156945 1.242423 -2.022013 -16.863395 2.140573 4.918294 23.722131 0.423161 3.629689 3.307199 -0.173670 -0.747690 0.303050 17.701584 -9.829186 4.192064 8.087394 5.161779 -23.564624 9.507312 -3.041137 5.254292 0.169232 -1.282504 4.191048 -0.799440 -0.207230 0.031180 -1.764859 -5.024655 -9.109305 6.545886 -0.673398 10.062729 12.819309 5.841510 -26.225365 3.347887 -3.610275 -14.541899 -11.941209 9.362586 48.678183 -1.910060 12.280700 20.891030 4.873038 32.489765 5.535265 -50.451476 40.544628 -10.858277 -35.862015 -66.687491 23.898324 -2.931778 3.834640 0.565800 -0.219120 0.112800 -0.070970 -7.285106 -26.648815 5.069356 68.885659 -20.870646 -20.729891 -17.110038 61.902293 -2.137726 2.365310 -1.412840 -0.015960 -0.386860 -0.145210 -0.244310 
-0.124060 17.446990 -1.882500 -6.399434 -20.702124 7.460707 -15.421838 14.952519 3.161570 1.284546 -2.070380 -17.560552 2.598599 4.882356 24.651915 0.428598 3.720957 3.290294 -0.183970 -0.749460 0.291640 17.721049 -9.771014 4.183064 8.539797 5.230991 -23.593816 8.632995 -2.958620 5.656193 0.189349 -1.232081 4.226537 -0.793160 -0.178080 0.011560 -1.831673 -5.214361 -9.084337 7.722965 -0.631877 10.642689 12.514744 5.930544 -26.070237 3.236113 -4.023489 -14.490825 -12.854534 9.601177 47.865197 -2.194340 12.389080 20.799940 5.246149 32.400770 5.608446 -51.176776 39.794142 -11.069257 -31.246308 -69.807209 22.199927 -2.935386 3.820747 0.556260 -0.206790 0.098420 -0.058990 -7.437084 -26.170888 4.855589 69.291038 -19.677488 -20.750546 -22.657961 61.944825 -4.667882 2.342717 -1.332491 -0.035480 -0.350500 -0.145140 -0.235920 
-0.096590 17.442290 -1.898010 -6.106272 -20.307765 7.539896 -15.393835 14.994104 3.219319 0.504566 -2.217415 -18.174743 2.988570 4.741183 25.300005 0.397195 3.773791 3.275977 -0.166530 -0.739330 0.280360 17.758249 -9.676581 4.164491 8.339392 5.427474 -24.232627 8.159774 -2.914444 6.220815 0.202916 -1.173934 4.240216 -0.768000 -0.160020 0.000960 -1.971078 -5.482180 -9.032503 9.044161 -1.079329 11.549071 11.351673 5.406387 -26.747935 3.057544 -5.378744 -14.336109 -15.949956 11.015874 46.560264 -1.150650 11.772680 20.031310 5.168694 32.787352 5.422851 -51.351705 38.819219 -11.275303 -20.640376 -71.945939 15.917371 -2.956544 3.762231 0.577440 -0.217340 0.085020 -0.046220 -6.942807 -25.591030 4.475504 69.217006 -18.431590 -20.174664 -26.907871 62.015708 -6.493106 2.308008 -1.273945 -0.058290 -0.325690 -0.137310 -0.237430 
-0.058290 17.441790 -1.893750 -5.610970 -17.319365 7.387427 -15.387217 15.038974 3.302913 -0.445139 -2.611540 -18.840728 4.027258 4.306223 26.267858 0.399547 3.812161 3.268142 -0.165940 -0.731660 0.257950 17.765287 -9.607614 4.110667 7.200516 5.527416 -25.067103 8.522515 -3.064527 7.196065 0.214803 -1.178464 4.236257 -0.758890 -0.140500 -0.005320 -2.090392 -5.764573 -8.969760 10.132965 -2.246147 12.321455 10.454418 4.422533 -27.623276 2.921893 -6.505230 -14.366433 -18.572994 11.622970 45.041637 -0.413210 10.524050 19.173710 5.485845 32.970026 5.286324 -52.227734 36.889736 -11.220101 -11.613199 -72.855415 10.445852 -2.967512 3.684588 0.568580 -0.219970 0.071240 -0.041290 -6.959002 -25.183290 4.230717 68.142612 -17.952408 -19.449175 -29.690090 61.764977 -7.417425 2.308592 -1.251885 -0.058900 -0.307260 -0.126360 -0.222320 
